<svg width="40" height="40" viewBox="0 0 40 40" fill="none" xmlns="http://www.w3.org/2000/svg">
<rect width="40" height="40" rx="6" fill="#060A12"/>
<path d="M14.0283 14.2476C13.1172 14.3154 8.9189 14.4743 8.22798 14.1972C7.97833 13.9334 8.00605 13.1659 8.03898 12.8466C8.12323 12.0306 7.88278 8.72406 8.24299 8.18282C9.03934 7.78092 15.7161 8.18903 17.1198 8.04279C18.1534 7.93507 20.9504 8.14301 21.9635 8.47226C23.9164 9.08818 25.5342 10.4723 26.4442 12.3058C27.0984 13.5986 27.5718 15.4108 27.0687 16.8075C26.9205 17.2191 26.7994 17.5286 26.7255 17.9613C28.8281 18.6615 30.3088 20.101 31.3257 22.0257C33.24 25.6486 31.1713 29.6616 27.8326 31.4916C27.4907 31.6789 26.3103 32.1707 26.0132 31.7934C25.8965 30.9311 25.9462 29.3279 25.9553 28.4155C25.963 27.6514 25.9044 26.7445 25.9163 26.0195C23.9561 26.1184 21.9997 26.3072 20.048 26.3051C20.1452 26.7785 20.1194 31.3724 20.065 32C18.0963 31.9173 16.0399 32.0414 14.0589 31.9548C14.0046 31.329 13.9556 26.7282 14.084 26.252C13.3115 26.2798 8.54092 26.3864 8.16536 26.1477C7.94087 25.643 7.90456 20.3471 8.31331 20.0417C8.8335 19.8937 13.1934 19.9772 14.019 19.9743L14.0191 16.2249C14.0158 15.8161 13.965 14.5801 14.0283 14.2476ZM14.1646 26.081C14.7597 25.854 19.0581 25.9408 19.9575 25.9618C20.1311 24.2544 19.868 21.9174 19.9371 20.2283C18.2013 20.3695 15.9245 20.2808 14.1111 20.343C14.2178 20.946 14.1255 21.3798 14.1404 21.9385C14.1672 22.9397 14.016 25.1607 14.1646 26.081Z" fill="#22D672"/>
</svg>
