<svg width="32" height="32" viewBox="0 0 32 32" fill="none" xmlns="http://www.w3.org/2000/svg">
  <rect width="32" height="32" rx="8" fill="#080C14"/>
  <g transform="translate(1, 0.5) scale(0.97)">
    <path d="M7.57031 8.32224C6.42617 8.40745 1.15395 8.60696 0.286291 8.25902C-0.0272162 7.9277 0.00759919 6.96388 0.0489529 6.56289C0.154757 5.53814 -0.147201 1.38583 0.305142 0.706144C1.30519 0.201448 9.68988 0.713951 11.4526 0.530302C12.7506 0.395026 16.263 0.656157 17.5353 1.06962C19.9877 1.84309 22.0193 3.58131 23.1621 5.8838C23.9836 7.50728 24.5781 9.78295 23.9464 11.5369C23.7602 12.0538 23.6082 12.4425 23.5153 12.9859C26.1558 13.8652 28.0152 15.6729 29.2923 18.09C31.6962 22.6396 29.0983 27.6791 24.9057 29.9771C24.4763 30.2124 22.994 30.83 22.6209 30.3561C22.4743 29.2733 22.5367 27.26 22.5482 26.1142C22.5578 25.1547 22.4842 24.0158 22.4992 23.1053C20.0376 23.2295 17.5807 23.4666 15.1298 23.464C15.2518 24.0585 15.2195 29.8275 15.1512 30.6156C12.6789 30.5118 10.0965 30.6676 7.60878 30.5588C7.54051 29.773 7.47903 23.9953 7.6402 23.3973C6.67013 23.4322 0.679278 23.5661 0.20766 23.2663C-0.0742587 22.6325 -0.119858 15.982 0.393454 15.5985C1.04671 15.4126 6.52178 15.5174 7.5586 15.5138L7.55876 10.8053C7.5546 10.292 7.49083 8.73986 7.57031 8.32224ZM7.7415 23.1825C8.48876 22.8975 13.8867 23.0065 15.0162 23.0329C15.2342 20.8887 14.9037 17.954 14.9905 15.8328C12.8107 16.0101 9.95151 15.8987 7.67425 15.9768C7.80825 16.7341 7.69234 17.2788 7.7111 17.9805C7.74473 19.2377 7.55486 22.0269 7.7415 23.1825Z" fill="#22D672"/>
  </g>
</svg>
