<svg width="144" height="31" viewBox="0 0 144 31" fill="none" xmlns="http://www.w3.org/2000/svg">
<path d="M7.57031 8.32224C6.42617 8.40745 1.15395 8.60696 0.286291 8.25902C-0.0272162 7.9277 0.00759919 6.96388 0.0489529 6.56289C0.154757 5.53814 -0.147201 1.38583 0.305142 0.706144C1.30519 0.201448 9.68988 0.713951 11.4526 0.530302C12.7506 0.395026 16.263 0.656157 17.5353 1.06962C19.9877 1.84309 22.0193 3.58131 23.1621 5.8838C23.9836 7.50728 24.5781 9.78295 23.9464 11.5369C23.7602 12.0538 23.6082 12.4425 23.5153 12.9859C26.1558 13.8652 28.0152 15.6729 29.2923 18.09C31.6962 22.6396 29.0983 27.6791 24.9057 29.9771C24.4763 30.2124 22.994 30.83 22.6209 30.3561C22.4743 29.2733 22.5367 27.26 22.5482 26.1142C22.5578 25.1547 22.4842 24.0158 22.4992 23.1053C20.0376 23.2295 17.5807 23.4666 15.1298 23.464C15.2518 24.0585 15.2195 29.8275 15.1512 30.6156C12.6789 30.5118 10.0965 30.6676 7.60878 30.5588C7.54051 29.773 7.47903 23.9953 7.6402 23.3973C6.67013 23.4322 0.679278 23.5661 0.20766 23.2663C-0.0742587 22.6325 -0.119858 15.982 0.393454 15.5985C1.04671 15.4126 6.52178 15.5174 7.5586 15.5138L7.55876 10.8053C7.5546 10.292 7.49083 8.73986 7.57031 8.32224ZM7.7415 23.1825C8.48876 22.8975 13.8867 23.0065 15.0162 23.0329C15.2342 20.8887 14.9037 17.954 14.9905 15.8328C12.8107 16.0101 9.95151 15.8987 7.67425 15.9768C7.80825 16.7341 7.69234 17.2788 7.7111 17.9805C7.74473 19.2377 7.55486 22.0269 7.7415 23.1825Z" fill="#22D672"/>
<path d="M38.5718 2.95488C38.3675 2.80195 37.9831 2.56764 37.9258 2.34453C38.0063 2.30201 43.1235 2.26094 43.7195 2.29709C47.9629 2.55525 52.5132 1.9477 56.6345 2.98577C59.2236 3.63797 61.8339 5.99341 60.8762 8.88283C59.8497 11.9802 56.9199 12.3067 54.2886 13.2879C59.8082 14.13 64.1443 17.0278 63.3292 23.3694C63.0629 25.4412 62.0589 27.2224 60.3601 28.4688C58.5185 29.7434 56.6019 30.6787 54.3063 30.5708C53.381 30.5272 52.144 30.4536 51.2577 30.4976L50.8123 30.3717L51.276 30.2288C54.1392 30.3902 55.8684 27.9026 56.4652 25.4075C57.0409 22.9636 56.6237 20.3914 55.3051 18.2544C54.3252 16.6665 53.1514 16.2333 51.4269 15.8234C51.1462 15.7627 50.5689 15.6286 50.304 15.6136C49.3182 15.5577 48.2856 15.9041 47.3944 15.4177C47.2541 15.8278 47.2435 29.9611 47.4074 30.6342C46.3013 30.619 39.1687 30.7238 38.6795 30.3251C38.9045 30.0999 39.9601 29.9391 40.3201 29.8872C40.4334 28.3183 40.3604 26.2086 40.3601 24.5873L40.3625 14.9177L40.3672 7.28116C40.3675 6.19616 40.4213 4.11016 40.3032 3.08897C39.67 3.0664 39.2032 3.05214 38.5718 2.95488ZM51.6828 14.8499C53.051 14.2809 53.9151 13.4877 54.4184 12.1104C55.4596 9.26099 55.3471 4.71576 52.1588 3.27932C50.7651 2.6514 48.3695 3.30241 47.5873 2.99969C47.5379 2.85686 47.5627 2.82351 47.607 2.67016L47.4881 2.63944C47.1319 3.21542 47.3525 13.6799 47.3347 15.1833C47.3433 15.2095 47.352 15.2355 47.3605 15.2616C48.9288 15.2185 50.1159 15.3158 51.6828 14.8499Z" fill="white"/>
<path d="M117.312 0L117.408 0.103452C117.928 2.60665 117.948 5.37581 118.485 7.89174C118.577 8.32371 118.728 9.1234 118.607 9.5411L118.494 9.60127C118.316 9.42721 118.113 8.43989 117.89 7.966C116.585 5.20006 114.245 3.50198 111.222 3.11364C109.879 2.9411 109.146 3.16897 107.756 2.70577L107.759 16.0478C107.727 20.4521 107.553 25.6198 107.789 29.9782L109.925 30.2799C108.835 30.5561 107.648 30.5846 106.528 30.6259C103.881 30.7459 101.229 30.6463 98.5988 30.3282C99.0666 30.1512 100.135 29.9994 100.628 29.9493C100.715 28.4403 100.647 26.5256 100.639 24.9743L100.622 16.4094L100.593 8.0731C100.594 6.69378 100.677 4.37109 100.561 3.08444C100.103 3.06492 98.5521 3.03743 98.4434 2.51771C98.907 2.16187 101.672 2.28993 102.374 2.29205C104.579 2.28331 106.785 2.30852 108.989 2.36775C111.342 2.40917 114.695 2.3389 117.07 2.27771C117.098 1.68704 117.128 0.497228 117.312 0Z" fill="white"/>
<path d="M74.0182 10.0009C78.1238 9.62449 82.5819 10.9793 83.29 15.6098C79.0579 15.6653 74.8953 15.3872 70.7421 15.4879C70.3244 18.7198 71.081 23.8436 74.0309 25.7687C76.3898 27.3074 80.8708 27.504 82.874 25.2543C83.3402 24.7306 83.6959 23.949 84.0984 23.352C84.1783 23.4899 84.0662 23.7704 84.0186 23.9642C83.4964 25.937 80.3392 30.5916 77.9922 30.6218C75.6689 30.6516 73.2276 30.6084 70.889 30.6414C70.5078 30.607 69.8296 30.5634 69.4881 30.3841C66.161 28.6366 64.4565 25.5179 64.2325 21.9181C63.8518 15.7999 67.7623 10.3841 74.0182 10.0009ZM70.7523 15.1518C71.8409 15.1164 73.0756 15.1375 74.1336 15.0601C74.6737 15.0523 76.6369 15.114 76.9367 14.8238C77.1337 14.4932 77.0726 14.1619 76.9715 13.8028C76.5308 12.2417 76.2387 11.6277 75.0669 10.5459C74.4971 10.41 74.1184 10.3252 73.5274 10.3945C72.7521 10.5135 72.5551 10.7538 72.0507 11.4032C71.3875 12.2575 70.7948 14.0513 70.7523 15.1518Z" fill="white"/>
<path d="M92.5157 4.99609C92.5633 5.07816 92.4291 9.76087 92.4435 10.3908C93.6154 10.5549 96.1492 10.4894 97.4603 10.4884C97.4714 11.3173 97.4731 12.1684 97.5113 12.9944C95.9183 13.0635 94.0637 13.0029 92.4333 13.0194C92.5021 13.8336 92.4478 15.4073 92.4469 16.3004L92.4376 22.9035C92.4342 26.441 91.9094 29.2631 96.7479 28.0751C97.1266 27.9821 97.5308 27.639 97.9061 27.6438L97.9138 27.747C97.4 28.0498 95.2933 29.7341 94.8076 30.1481C93.8387 30.8462 89.2184 30.7287 87.8564 30.6014C87.7859 30.5417 87.718 30.48 87.6509 30.4164C87.1516 29.941 86.2541 28.479 86.1106 27.803C85.8991 26.8066 85.9721 25.4177 85.9331 24.3652C85.7913 20.5845 86.0078 16.7994 85.911 13.0218C85.4287 12.9809 84.3987 13.0927 84.0548 12.8625C84.0395 12.1692 86.564 11.624 87.4675 10.9935C90.1406 9.12761 90.865 7.511 92.5157 4.99609Z" fill="white"/>
<path d="M138.389 4.99023C138.564 5.19756 138.433 6.01575 138.424 6.36082C138.386 7.70186 138.425 9.04053 138.382 10.3811C139.474 10.5661 142.325 10.4928 143.522 10.4888L143.527 12.9823C141.833 13.0239 140.108 12.9799 138.404 13.0061C138.34 16.8932 138.454 20.8511 138.393 24.7283C138.321 29.2697 140.339 28.3586 143.777 28.0447C142.462 28.7199 141.808 29.4921 140.602 30.2658C139.522 30.8644 137.999 30.5516 136.776 30.6138C135.999 30.6533 135.165 30.6825 134.361 30.6232C133.189 30.5368 132.434 28.7782 132.163 27.7969C131.947 26.5879 132.044 24.9959 132.047 23.7158L132.059 17.2516C132.06 15.9305 132.097 14.2997 131.99 13.0023C131.572 13.0025 130.722 13.0761 130.393 12.9267C130.195 12.6923 130.242 12.7981 130.234 12.4671C130.493 12.2815 131.763 11.8833 132.179 11.6983C134.782 10.5404 137.326 7.53221 138.389 4.99023Z" fill="white"/>
<path d="M118.672 13.3597C120.42 11.8156 122.293 11.7021 124.462 10.9421C125.395 10.6151 126.521 10.1938 127.456 9.9668C127.362 10.9419 127.451 13.8037 127.454 14.8888L127.453 24.1231C127.449 25.6531 127.495 27.6267 127.405 29.1266C127.358 29.6679 127.214 30.1781 127.417 30.6025C126.157 30.6453 120.664 30.7452 119.671 30.4139L119.657 30.3261C120.032 30.1321 120.47 30.0877 120.889 30.0199C121.121 28.9746 121.023 25.433 121.01 24.1085C120.973 20.6347 121.075 16.992 120.96 13.5316C120.129 13.5199 119.501 13.453 118.672 13.3597Z" fill="white"/>
<path d="M123.655 1.91872C129.105 1.51688 129.134 7.84854 125.019 8.5777C124.901 8.60197 124.782 8.62276 124.663 8.63999C123.701 8.77629 122.651 8.52763 121.871 7.94681C119.916 6.49204 120.194 2.8839 122.644 2.11018C122.971 2.00672 123.314 1.96378 123.655 1.91872Z" fill="white"/>
<path d="M114.425 10.8496C114.434 10.8552 114.443 10.8608 114.451 10.8664C114.507 10.915 114.543 10.9817 114.553 11.0547C114.593 11.332 114.553 14.0479 114.553 14.5489L114.55 22.9979C113.922 20.7056 114.021 20.0453 112.348 18.0893C111.152 16.7765 109.091 16.5809 107.404 16.4584C111.839 15.3756 112.904 15.8311 114.425 10.8496Z" fill="white"/>
<path d="M127.405 29.125L127.524 29.9759L129.302 30.3821C128.597 30.502 128.13 30.5507 127.418 30.6009C127.215 30.1765 127.359 29.6664 127.405 29.125Z" fill="white"/>
<path d="M51.2583 30.4992C50.8134 30.5362 48.0793 30.5697 47.7188 30.4005C48.1302 30.2925 50.6983 30.2542 51.2765 30.2305L50.8128 30.3734L51.2583 30.4992Z" fill="white" fill-opacity="0.435294"/>
</svg>
